<svg width="1200" height="900" viewBox="0 0 1200 900" fill="none" xmlns="http://www.w3.org/2000/svg">
  <defs>
    <linearGradient id="sky" x1="0" y1="0" x2="0" y2="1">
      <stop offset="0" stop-color="#F8FAFC"/>
      <stop offset="1" stop-color="#EEF2FF"/>
    </linearGradient>
    <linearGradient id="hill" x1="0" y1="0" x2="1" y2="1">
      <stop offset="0" stop-color="#E2E8F0"/>
      <stop offset="1" stop-color="#CBD5E1"/>
    </linearGradient>
    <linearGradient id="accent" x1="0" y1="0" x2="1" y2="1">
      <stop offset="0" stop-color="#3B82F6"/>
      <stop offset="1" stop-color="#1D4ED8"/>
    </linearGradient>
    <filter id="softShadow" x="-20%" y="-20%" width="140%" height="140%" color-interpolation-filters="sRGB">
      <feDropShadow dx="0" dy="18" stdDeviation="22" flood-color="#020617" flood-opacity="0.12"/>
    </filter>
  </defs>

  <rect x="0" y="0" width="1200" height="900" fill="url(#sky)"/>

  <path d="M0 610 C180 520 310 560 450 610 C610 665 740 710 900 650 C1020 605 1110 565 1200 600 V900 H0 Z" fill="url(#hill)"/>
  <path d="M0 690 C170 610 320 680 470 720 C640 765 740 780 890 735 C1030 690 1110 650 1200 675 V900 H0 Z" fill="#E5E7EB"/>

  <g filter="url(#softShadow)">
    <rect x="150" y="175" width="900" height="560" rx="48" fill="#FFFFFF"/>
    <rect x="150" y="175" width="900" height="560" rx="48" stroke="#E2E8F0"/>

    <circle cx="880" cy="250" r="86" fill="#EFF6FF"/>
    <circle cx="880" cy="250" r="86" fill="url(#accent)" opacity="0.12"/>

    <g>
      <path d="M415 500c0-78 52-130 122-130 70 0 122 52 122 130v52c0 78-52 130-122 130-70 0-122-52-122-130v-52Z" fill="#F1F5F9" stroke="#CBD5E1" stroke-width="6"/>
      <path d="M510 410c22-18 56-18 78 0" stroke="#94A3B8" stroke-width="10" stroke-linecap="round"/>
      <path d="M530 452h14" stroke="#0F172A" stroke-width="12" stroke-linecap="round"/>
      <path d="M585 452h14" stroke="#0F172A" stroke-width="12" stroke-linecap="round"/>
      <path d="M548 484c20 14 48 14 68 0" stroke="#0F172A" stroke-width="10" stroke-linecap="round"/>
      <path d="M495 560c-20 40-70 62-115 60" stroke="#94A3B8" stroke-width="10" stroke-linecap="round"/>
      <path d="M680 560c20 40 70 62 115 60" stroke="#94A3B8" stroke-width="10" stroke-linecap="round"/>
      <path d="M492 366c-6-34 12-62 42-72 10-4 20-5 30-4" stroke="#94A3B8" stroke-width="10" stroke-linecap="round"/>
      <path d="M582 290c8-2 17-2 26 0 30 10 48 38 42 72" stroke="#94A3B8" stroke-width="10" stroke-linecap="round"/>
    </g>

    <g>
      <path d="M770 560c0-56 44-96 104-96 54 0 98 34 104 84 2 18 0 44-6 62-10 28-36 52-74 62-10 2-20 3-30 2-60-6-98-44-98-114Z" fill="#F8FAFC" stroke="#CBD5E1" stroke-width="6"/>
      <path d="M842 510c0-14 12-24 28-24s28 10 28 24" stroke="#94A3B8" stroke-width="10" stroke-linecap="round"/>
      <path d="M838 548h12" stroke="#0F172A" stroke-width="12" stroke-linecap="round"/>
      <path d="M894 548h12" stroke="#0F172A" stroke-width="12" stroke-linecap="round"/>
      <path d="M862 585c16 12 38 12 54 0" stroke="#0F172A" stroke-width="10" stroke-linecap="round"/>
      <path d="M788 546c-18-6-34-18-42-34" stroke="#94A3B8" stroke-width="10" stroke-linecap="round"/>
      <path d="M960 542c20-8 36-22 44-40" stroke="#94A3B8" stroke-width="10" stroke-linecap="round"/>
      <path d="M840 640c-18 28-48 46-84 52" stroke="#94A3B8" stroke-width="10" stroke-linecap="round"/>
      <path d="M920 640c18 28 48 46 84 52" stroke="#94A3B8" stroke-width="10" stroke-linecap="round"/>
    </g>

    <g>
      <path d="M780 260c0-38 30-68 68-68h88c38 0 68 30 68 68v18c0 38-30 68-68 68h-88c-38 0-68-30-68-68v-18Z" fill="#F8FAFC" stroke="#E2E8F0" stroke-width="6"/>
      <path d="M820 242h144" stroke="#CBD5E1" stroke-width="10" stroke-linecap="round"/>
      <path d="M820 274h112" stroke="#CBD5E1" stroke-width="10" stroke-linecap="round"/>
      <circle cx="964" cy="274" r="10" fill="#3B82F6"/>
    </g>
  </g>
</svg>
